<?xml version="1.0" encoding="UTF-8" standalone="no"?>
<svg
   xmlns:dc="http://purl.org/dc/elements/1.1/"
   xmlns:cc="http://creativecommons.org/ns#"
   xmlns:rdf="http://www.w3.org/1999/02/22-rdf-syntax-ns#"
   xmlns:svg="http://www.w3.org/2000/svg"
   xmlns="http://www.w3.org/2000/svg"
   width="340.82349mm"
   height="149.67096mm"
   viewBox="0 0 340.82349 149.67096"
   version="1.1"
   id="svg952">
  <defs
     id="defs946" />
  <path
     d="m 187.79516,121.18148 h -10.14851 q -1.6431,-1.24276 -1.6431,-7.04907 v -0.0407 l 0.0644,-1.75208 q 0.0967,-3.64677 0.0967,-3.72826 0,-1.48723 -3.15732,-1.48723 v 14.01664 h -10.1485 V 91.925812 h 12.5326 q 4.28493,0 7.44225,1.242754 3.18952,1.242754 3.18952,3.931994 v 3.50416 q 0,3.40229 -6.2824,4.6043 6.31462,0.93716 6.31462,4.82841 l -0.16108,3.19857 q 0,7.00832 1.90083,7.94547 z m -11.63052,-19.15065 v -4.808029 q 0,-1.527977 -3.15732,-1.527977 v 7.884356 q 3.15732,0 3.15732,-1.54835 z"
     style="font-style:normal;font-variant:normal;font-weight:normal;font-stretch:normal;font-size:52.4691px;line-height:1.25;font-family:Haettenschweiler;-inkscape-font-specification:Haettenschweiler;letter-spacing:0px;word-spacing:0px;stroke-width:1.96759"
     id="path1272" />
  <path
     d="M 209.0265,121.14073 H 189.18051 V 91.925815 h 19.71712 v 3.769009 h -9.56861 v 7.884356 h 8.6343 v 3.54491 h -8.6343 v 10.268 h 9.69748 z"
     style="font-style:normal;font-variant:normal;font-weight:normal;font-stretch:normal;font-size:52.4691px;line-height:1.25;font-family:Haettenschweiler;-inkscape-font-specification:Haettenschweiler;letter-spacing:0px;word-spacing:0px;stroke-width:1.96759"
     id="path1274" />
  <path
     d="m 232.89966,102.1327 h -9.24642 v -5.785939 q 0,-0.713056 -1.38536,-0.713056 -1.44978,0 -1.44978,0.713056 v 20.271159 q 0,0.71306 1.44978,0.71306 1.38536,0 1.38536,-0.71306 v -7.21205 h 9.24642 v 7.41578 q 0,2.07805 -3.22175,3.34118 -3.22175,1.24275 -7.28116,1.24275 -11.72717,0 -11.72717,-5.25624 V 97.345039 q 0,-5.684074 11.72717,-5.684074 10.50291,0 10.50291,5.174748 z"
     style="font-style:normal;font-variant:normal;font-weight:normal;font-stretch:normal;font-size:52.4691px;line-height:1.25;font-family:Haettenschweiler;-inkscape-font-specification:Haettenschweiler;letter-spacing:0px;word-spacing:0px;stroke-width:1.96759"
     id="path1276" />
  <path
     d="M 235.02602,116.14934 V 97.345039 q 0,-5.684074 11.66273,-5.684074 11.50164,0 11.50164,5.643328 V 116.1086 q 0,2.54662 -3.22174,3.93199 -3.18954,1.36499 -8.34434,1.36499 -11.59829,0 -11.59829,-5.25624 z m 13.24138,0.3056 V 96.55049 q 0,-0.876039 -1.64309,-0.876039 -1.70752,0 -1.70752,0.876039 v 19.90445 q 0,0.87604 1.70752,0.87604 1.64309,0 1.64309,-0.87604 z"
     style="font-style:normal;font-variant:normal;font-weight:normal;font-stretch:normal;font-size:52.4691px;line-height:1.25;font-family:Haettenschweiler;-inkscape-font-specification:Haettenschweiler;letter-spacing:0px;word-spacing:0px;stroke-width:1.96759"
     id="path1278" />
  <path
     d="m 285.38196,121.18148 h -10.14851 q -1.64309,-1.24276 -1.64309,-7.04907 v -0.0407 l 0.0644,-1.75208 q 0.0967,-3.64677 0.0967,-3.72826 0,-1.48723 -3.15732,-1.48723 v 14.01664 H 260.44563 V 91.925812 h 12.53261 q 4.28492,0 7.44223,1.242754 3.18954,1.242754 3.18954,3.931994 v 3.50416 q 0,3.40229 -6.28242,4.6043 6.31464,0.93716 6.31464,4.82841 l -0.16109,3.19857 q 0,7.00832 1.90083,7.94547 z m -11.63051,-19.15065 v -4.808029 q 0,-1.527977 -3.15732,-1.527977 v 7.884356 q 3.15732,0 3.15732,-1.54835 z"
     style="font-style:normal;font-variant:normal;font-weight:normal;font-stretch:normal;font-size:52.4691px;line-height:1.25;font-family:Haettenschweiler;-inkscape-font-specification:Haettenschweiler;letter-spacing:0px;word-spacing:0px;stroke-width:1.96759"
     id="path1280" />
  <path
     d="M 286.63844,121.14073 V 91.925815 h 12.62926 q 4.12384,0 7.34559,1.426111 3.22174,1.405739 3.22174,4.339454 v 17.68379 q 0,2.72998 -3.02844,4.25796 -2.99623,1.5076 -7.47445,1.5076 z m 12.98366,-5.29698 V 97.222801 q 0,-1.527977 -2.83515,-1.527977 v 21.697266 q 2.83515,0 2.83515,-1.54834 z"
     style="font-style:normal;font-variant:normal;font-weight:normal;font-stretch:normal;font-size:52.4691px;line-height:1.25;font-family:Haettenschweiler;-inkscape-font-specification:Haettenschweiler;letter-spacing:0px;word-spacing:0px;stroke-width:1.96759"
     id="path1282" />
  <path
     d="m 311.92918,109.44662 h 9.24642 v 6.70272 q 0,0.99828 1.90084,0.99828 1.8364,0 1.8364,-0.99828 v -3.46341 q 0,-1.5891 -3.35063,-3.72827 -6.47571,-3.97274 -8.05437,-5.33773 -1.57866,-1.36499 -1.57866,-2.99483 v -3.280061 q 0,-5.684074 11.72717,-5.684074 10.5029,0 10.5029,5.174748 v 5.052507 h -9.24641 v -5.378475 q 0,-0.87604 -1.51423,-0.87604 -1.77196,0 -1.77196,1.690961 l 0.1933,1.894691 q 0,1.629843 3.41505,3.789383 6.34685,3.8505 8.05438,5.37848 1.73975,1.52797 1.73975,3.46341 v 3.72827 q 0,5.82668 -11.75939,5.82668 -11.34056,0 -11.34056,-5.29699 z"
     style="font-style:normal;font-variant:normal;font-weight:normal;font-stretch:normal;font-size:52.4691px;line-height:1.25;font-family:Haettenschweiler;-inkscape-font-specification:Haettenschweiler;letter-spacing:0px;word-spacing:0px;stroke-width:1.96759"
     id="path1284" />
  <path
     id="rect1013-7"
     style="fill:#ac0704;fill-opacity:1;stroke:none;stroke-width:0.269231;stroke-linecap:round;stroke-linejoin:round;stop-color:#000000"
     d="m 163.05166,13.63464 v 5.44 h 56.89576 c -0.31318,-2.6924 -2.48235,-5.44 -5.16139,-5.44 z m 119.30358,0.25845 0.0221,5.18155 h 14.9416 l 0.0247,-5.18155 z m -47.39265,0.0328 c -3.7635,0 -7.00873,2.03192 -8.60486,5.1488 h 51.80693 v -5.1488 z m -71.91093,6.97254 v 6.30955 h 56.93859 v -6.30955 z m 62.60025,0 c -0.22625,0.82968 -0.34963,1.70984 -0.34963,2.63032 v 3.67923 h 52.86238 v -6.30955 z m 56.73355,0 0.0272,6.30955 h 14.86805 l 0.0297,-6.30955 z m -119.3338,8.13329 v 6.309546 h 14.39649 V 29.03172 Z m 42.77586,0 v 6.309546 h 14.16273 V 29.03172 Z m 19.47476,0 v 6.309546 H 240.3265 V 29.03172 Z m 57.11795,0 0.0272,6.309546 h 14.79499 l 0.0297,-6.309546 z m -119.36857,8.133296 v 6.309541 h 14.39649 v -6.309541 z m 42.77586,0 v 6.309541 h 14.16273 v -6.309541 z m 19.47476,0 v 6.309541 h 52.86238 V 38.229533 H 240.3265 v -1.064517 z m 57.15272,0 0.0272,6.309541 h 14.72144 l 0.0297,-6.309541 z m -119.40334,8.133287 v 6.309553 h 14.39649 v -6.309553 z m 42.77586,0 v 6.309553 h 14.16273 v -6.309553 z m 19.47476,0 v 6.309553 h 52.86238 v -6.309553 z m 57.18798,0 0.0272,6.309553 h 14.64788 l 0.0297,-6.309553 z m -119.4386,8.13329 v 6.309553 h 14.39649 v -6.309553 z m 42.77586,0 v 6.309553 h 14.16273 v -6.309553 z m 19.47476,0 v 6.309553 h 15.30232 v -5.738248 h 37.56006 v -0.571305 z m 57.22274,0 0.0272,6.309553 h 14.57434 l 0.0302,-6.309553 z m -119.47336,8.1333 v 6.309543 h 14.39649 v -6.309543 z m 42.77586,0 v 6.309543 h 14.16273 v -6.309543 z m 19.47476,0 v 6.309543 h 15.30232 v -6.309543 z m 57.258,0 0.0267,6.309543 h 14.19749 c 0.1077,0 0.21009,0.02135 0.30329,0.06044 l 0.0302,-6.370007 z m 14.73958,7.9363 c -0.13765,0.121366 -0.31659,0.19699 -0.51537,0.19699 h -14.18944 l 0.0207,4.82285 c 0.002,0.505645 0.041,1.001803 0.11284,1.486702 h 52.74953 v -6.230458 h -37.56005 c -0.24677,0 -0.46556,-0.107776 -0.61817,-0.276084 z m -134.2482,0.19699 v 6.309552 h 56.93859 v -6.309552 h -14.16273 v 0.07906 h -28.37937 v -0.07906 z m 62.25062,0 v 5.376011 c 0,0.315168 0.0161,0.626056 0.0439,0.933541 h 52.81855 v -5.677287 h -37.56006 v -0.632265 z m -62.25062,8.13328 v 6.424416 c 0,0 32.37684,-0.11463 45.82584,0.27659 3.99241,0.116151 9.53511,-3.714011 10.83214,-6.701006 z m 62.62847,0 c 1.15802,4.147035 4.86328,7.166007 9.28246,7.166007 h 43.20207 v -7.166007 z m 57.49378,0 c 1.32704,3.859243 4.88201,6.611832 9.10209,6.611832 h 43.20208 v -6.611832 z" />
  <circle
     style="fill:#000000;fill-opacity:1;stroke:none;stroke-width:0.245396;stroke-linecap:round;stroke-linejoin:round;stop-color:#000000"
     id="path1219"
     cx="75.946793"
     cy="75.024139"
     r="64.854462" />
  <path
     id="path1127-0"
     style="fill:#000000;fill-opacity:1;stroke:none;stroke-width:0.284365;stroke-linecap:round;stroke-linejoin:round;stop-color:#000000"
     d="M 76.739374,2.1381612 A 73.532013,72.957543 0 0 0 3.207235,75.095473 73.532013,72.957543 0 0 0 76.739374,148.05329 73.532013,72.957543 0 0 0 150.27151,75.095473 73.532013,72.957543 0 0 0 76.739374,2.1381612 Z m 0,6.774553 A 66.704042,66.182916 0 0 1 143.44304,75.095473 66.704042,66.182916 0 0 1 76.739374,141.27873 66.704042,66.182916 0 0 1 10.03519,75.095473 66.704042,66.182916 0 0 1 76.739374,8.9127142 Z" />
  <path
     id="path1175"
     style="fill:#ffffff;fill-opacity:1;stroke:none;stroke-width:0.253129;stroke-linecap:round;stroke-linejoin:round;stop-color:#000000"
     d="M 54.827738,14.337596 A 65.323145,65.594909 0 0 0 14.246924,53.997477 l 41.817629,15.10735 a 19.802762,19.802762 0 0 0 -1.059969,6.391163 19.802762,19.802762 0 0 0 19.802739,19.802736 19.802762,19.802762 0 0 0 8.481917,-1.908383 l 17.31095,43.737107 A 65.323145,65.594909 0 0 0 137.50582,97.454471 L 93.363651,82.411104 a 19.802762,19.802762 0 0 0 1.246385,-6.915114 19.802762,19.802762 0 0 0 -19.802713,-19.802734 19.802762,19.802762 0 0 0 -0.127966,0 19.802762,19.802762 0 0 0 -5.429925,0.796 z m 20.056143,57.04137 a 3.9639902,3.8713894 0 0 1 3.805188,2.787001 4.1690027,3.6478774 0 0 1 0.287169,1.330023 4.1690027,3.6478774 0 0 1 -0.557211,1.821728 l -0.151129,-0.05139 a 3.9639902,3.8713894 0 0 1 -0.949672,1.039333 l 0.03224,0.08061 a 4.1690027,3.6478774 0 0 1 -2.543146,0.757207 4.1690027,3.6478774 0 0 1 -4.168941,-3.647489 4.1690027,3.6478774 0 0 1 0.180871,-1.060996 l 0.17584,0.06348 a 3.9639902,3.8713894 0 0 1 3.888788,-3.119506 z" />
  <g
     id="g79"
     transform="translate(0.9211446,-0.6140964)">
    <ellipse
       style="fill:none;stroke:#000000;stroke-width:0.316164;stroke-linecap:round;stroke-linejoin:round;stroke-opacity:1;stop-color:#000000"
       id="ellipse58"
       cx="73.614845"
       cy="75.473831"
       rx="50.449829"
       ry="49.716019" />
    <ellipse
       style="fill:none;stroke:#000000;stroke-width:0.25739;stroke-linecap:round;stroke-linejoin:round;stroke-opacity:1;stop-color:#000000"
       id="path56"
       cx="73.614845"
       cy="75.473831"
       rx="41.071327"
       ry="40.473934" />
    <ellipse
       style="fill:none;stroke:#000000;stroke-width:0.185456;stroke-linecap:round;stroke-linejoin:round;stroke-opacity:1;stop-color:#000000"
       id="path56-6"
       cx="73.614845"
       cy="75.473831"
       rx="29.592987"
       ry="29.162548" />
  </g>
  <path
     id="path1127-2"
     style="fill:#bc2025;fill-opacity:1;stroke:none;stroke-width:0.254874;stroke-linecap:round;stroke-linejoin:round;stop-color:#000000"
     d="m 97.362515,13.466352 c -6.186792,9.484997 -15.380136,26.639445 -12.355656,41.175563 2.572972,12.366048 18.274951,29.01264 21.625661,41.190991 2.8567,10.383054 -0.54828,26.211304 -4.63775,39.382594 A 65.906144,65.391251 0 0 0 141.64516,75.237161 65.906144,65.391251 0 0 0 97.362515,13.466352 Z" />
  <ellipse
     style="fill:#000000;fill-opacity:1;stroke:none;stroke-width:0.17775;stroke-linecap:round;stroke-linejoin:round;stop-color:#000000"
     id="path1190"
     cx="74.657112"
     cy="75.208389"
     rx="3.9639902"
     ry="3.8713894" />
  <path
     id="rect1225"
     style="fill:#bc2025;fill-opacity:1;stroke:none;stroke-width:0.209756;stroke-linecap:round;stroke-linejoin:round;stop-color:#000000"
     d="M 83.001857,12.69877 12.121141,73.626724 c 0,0.149978 -0.0029,0.299959 -0.0029,0.449937 -1.56e-4,2.88446 0.201571,5.765414 0.6037,8.62186 L 91.908218,14.631033 C 88.990344,13.770396 86.01304,13.124579 83.000317,12.69877 Z M 59.540535,12.71683 C 39.45674,17.284235 22.946141,31.476527 15.454983,50.612276 Z M 80.45279,42.915309 16.786339,97.641981 c 0.956178,2.319941 2.052646,4.579869 3.283416,6.767329 L 79.577744,53.256855 c -0.235567,-3.396848 0.125889,-6.89048 0.875046,-10.341546 z m 4.01597,24.573346 -56.179475,48.290825 c 1.640718,1.79958 3.386228,3.50129 5.227455,5.09634 L 88.236586,73.839754 C 86.910207,71.703074 85.623575,69.575466 84.46876,67.488655 Z M 95.611584,85.936107 45.492271,129.01777 c 2.383947,1.24224 4.846229,2.32887 7.371342,3.25304 L 98.849491,92.741826 C 98.045895,90.577721 96.920512,88.292789 95.611584,85.936107 Z M 100.1311,110.0759 70.060682,135.92415 c 1.405356,0.0954 2.813598,0.14323 4.222221,0.14327 2.426784,-8e-5 4.851473,-0.14187 7.261626,-0.42465 L 98.13427,121.38241 c 0.874101,-3.79294 1.581444,-7.62326 1.99683,-11.30651 z" />
  <metadata
     id="metadata1294">
    <rdf:RDF>
      <cc:Work
         rdf:about="">
        <dc:title></dc:title>
        <dc:format>image/svg+xml</dc:format>
        <dc:type
           rdf:resource="http://purl.org/dc/dcmitype/StillImage" />
      </cc:Work>
    </rdf:RDF>
  </metadata>
</svg>
